<svg version="1" xmlns="http://www.w3.org/2000/svg" width="682.667" height="682.667" viewBox="0 0 512.000000 512.000000"><path d="M207.6 76.1c-1.3 2-1.6 5.5-1.6 22.1 0 15.2-.3 19.8-1.2 19.8-.7 0-4.4-.7-8.3-1.5-14.5-3-32.1-4.5-52-4.5-30.8.1-36.5 1.5-36.5 9 0 4.2.9 5.9 4 7.5 2.4 1.2 5.1 1.3 16.7.4 15.3-1.2 41.4.1 55.8 2.7 4.4.8 11 1.9 14.8 2.6l6.7 1.2v24.9c0 15.1-.4 24.6-.9 24.2-2.6-1.5-32.3-5.7-44.9-6.2-13.9-.6-14.3-.6-16.7 1.7-1.8 1.7-2.5 3.4-2.5 6.1 0 5.8 3 7.6 13.8 8.3 14.1 1 34.1 3.5 42.7 5.5l8 1.7.3 8.1.3 8.1-8.3-1.8c-16.9-3.6-27.8-4.5-54.3-4.5-19.7.1-28.6.5-36.8 1.8-24.6 3.9-44.7 9.4-47.2 12.9-3.4 5 .2 12.8 5.8 12.8 1.4 0 8.6-1.6 16-3.5 38-9.7 77.5-10.6 116.5-2.5 6.2 1.2 10.2 1.6 11.7 1 2.6-1 5.5-4.7 5.5-7 0-1.2 12.6-10.4 16.1-11.8.4-.2 4.9 2.4 9.9 5.8 7.3 4.9 9.8 6.1 12.1 5.8l2.9-.5.3 66.6c.1 36.6.3 7.3.5-65.2.2-110.5 0-132.3-1.2-135.1-1.2-2.8-2.6-3.8-10.2-7-9.5-4-27.8-10.2-33-11.2-2.6-.5-3.5-.1-4.8 1.7zM350.5 111.6c-14.2 1.4-14.8 1.6-17.7 4.4-3.4 3.5-3.6 7-.4 10.6l2.3 2.8 30.9.1c35.4.1 42.5 1 73.9 9.4 8.2 2.2 11.8 1.4 14.1-3.1 1.8-3.4 1.1-7.8-1.5-10.2-3.3-3-25-8.4-46.6-11.7-12.4-1.9-45.5-3.3-55-2.3zM77 120c-1.4.5-5.2 1.6-8.4 2.6-7.1 2-10.6 5.1-10.6 9.4 0 3.8 3.9 8 7.5 8 5.6 0 21-5 23.3-7.6 2.6-3 2.9-7.4.4-10.4-2-2.4-8.2-3.5-12.2-2zM299 120c-1.4.5-5.1 1.6-8.2 2.5-7 1.9-9.8 4.6-9.8 9.5 0 4.4 3.4 8.1 7.6 8.2 3.3.1 17.6-3.8 21.5-5.8 4.5-2.3 5.3-8.3 1.8-12.8-1.6-2.1-2.8-2.6-6.2-2.5-2.3 0-5.3.4-6.7.9z"/><path d="M16.5 121.1c-4.8 1.3-11.5 7.8-14.1 13.3L0 139.5V281c0 140.2.1 141.5 2.1 146 2.5 5.5 6.2 9.5 11.4 12.3l4 2.2h477l4-2.2c5.2-2.8 8.9-6.8 11.4-12.3 2-4.5 2.1-5.8 2.1-146V139.5l-2.4-5.1c-2.7-5.8-9.4-12-14.5-13.4-2-.5-6.4-1-9.8-1H479v130.9c0 128.8 0 130.9-2 133.3-1.1 1.4-2.8 2.8-3.9 3.1-1.1.3-8.4-1.7-16.3-4.5-42.1-14.6-81.3-18.8-123.6-13.2-22.8 2.9-49.2 10.2-69.1 18.9l-8.3 3.7-8.1-3.5c-19.3-8.3-41.9-14.8-63.3-18.3-13.4-2.1-51.9-3-66.6-1.5-21.6 2.3-46.2 8.1-65.7 15.6-10.1 3.8-13.5 3.9-16.5.6-1.5-1.7-1.7-12.8-1.6-133.5V120l-7.2.1c-4 0-8.7.5-10.3 1z"/><path d="M345.7 145c-24.9 2.3-58.7 9.9-62.7 14.3-2.8 2.9-2.7 8.8.3 11.4 3.4 3.1 5.1 3.3 11.4 1.7 33.9-9 40.8-9.9 76.7-9.9h29.8l1.9-2.4c2.4-2.9 2.4-8.2.2-11-1.1-1.3-3.8-2.5-7.1-3.1-7.6-1.4-39-2-50.5-1zM112.5 146.6c-23.1 2.8-50.3 9.8-53 13.6-3.4 5 .2 12.8 5.8 12.8 1.4 0 8.6-1.6 16-3.5 20.7-5.3 39.2-7.7 60.2-7.8 9.9-.1 21.7.2 26.3.6l8.2.8 3-3c3.6-3.5 3.8-7 .7-10.6-1.8-2.1-3.5-2.8-9.2-3.5-10.2-1.4-45.3-1-58 .6zM424.1 153.7c-1.2 1-2.4 3.4-2.7 5.4-1 5.9 2.2 8.5 14.5 12 9.5 2.6 10.5 2.7 13.7 1.4 5.9-2.4 7-10.8 1.8-14.2-3.1-2-17.9-6.2-22-6.3-1.8 0-4.1.8-5.3 1.7zM369 177.7c-5 1.9-7 7.4-4.6 12.1 1.9 3.7 6 5.2 14.5 5.2 13.9 0 36.9 3.7 56.4 9 8.7 2.3 11.4 2.7 13.8 1.8 6-2.1 7.5-11.1 2.3-14.5-5.2-3.4-34.6-10.2-52.9-12.2-12.3-1.4-27.7-2.1-29.5-1.4zM111 179.7c-19.8 3-42.8 8.2-48.2 10.9-5.3 2.7-6.4 8.9-2.3 12.9 3.1 3.2 4.7 3.2 20.6-.9 13.4-3.4 30.2-6.6 34.7-6.6 2.9 0 8.2-5.1 8.2-7.9 0-3.3-2-6.8-4.7-8-2.4-1.1-3.6-1.2-8.3-.4zM323.5 180.9c-22.5 4-37.6 8.2-40.5 11.3-4 4.3-1.8 12 4.1 14 .8.4 8.3-1.1 16.5-3.2 8.2-2 20.3-4.5 26.9-5.5 14-2.1 16.5-3.7 16.5-10.4 0-3.1-.6-4.4-2.6-6-3.3-2.6-7.2-2.6-20.9-.2zM353.5 210.6c-21.4 1.3-44.8 5.5-66.8 12-5.8 1.7-7.7 10.2-3.2 14.4 3.1 2.9 6.5 2.9 18.2-.4 21.7-6 41.6-8.6 66.3-8.6 24.2 0 46.1 3 69.4 9.5 8 2.2 9.1 2.3 12.2 1 5.9-2.4 6.9-10.8 1.8-14.2-5.2-3.3-34.5-10.2-52.9-12.2-10.4-1.2-36.2-2-45-1.5zM349 244c-13.4 1-33.9 4.2-45.4 7.1-18.9 4.7-22.6 6.8-22.6 12.6 0 4.6 1.3 6.8 4.9 8.2 2.5 1.1 4.5.8 14.7-1.9 23.2-6.2 44.6-9 68.4-9 14.7 0 17.2-.7 19.1-5.7 1.2-3.3-.3-8.3-3.1-10.1-2.6-1.6-21.6-2.3-36-1.2zM114 245.5c-17.9 2.2-42.1 7.4-50.5 10.9-5.7 2.4-7.2 9-3 13.1 3.1 3.2 6.5 3.2 18 0 19.1-5.3 34.7-7.6 56-8.1 11-.3 21.5-.7 23.3-1 6.9-1.1 9.7-9 4.7-13.9-2.4-2.5-2.6-2.5-20.2-2.4-9.8.1-22.5.7-28.3 1.4zM410.1 248.1c-3.4 1.3-5 3.9-5.1 7.7 0 6.6 1.8 7.9 15.5 10.7 4.4.9 11.9 2.8 16.7 4.1 5.1 1.5 9.6 2.2 11.1 1.9 7.4-1.9 8.6-12.5 1.8-16-2.4-1.2-27.1-7.6-34.6-8.9-1.6-.3-4.1-.1-5.4.5zM184.6 250.3c-3.3 3.3-3.4 7.9-.3 11.1 1.6 1.6 4.9 2.9 10.3 4 4.3 1 12 2.8 17 4.2 5.1 1.3 10.5 2.4 12.1 2.4 7 0 9.9-10 4.2-14.3-3-2.1-26.3-8.4-35.1-9.4-5.1-.5-5.8-.3-8.2 2zM355 276.6c-19.1 1.2-42.5 4.9-56.5 8.8-2.7.8-6.9 1.9-9.2 2.6-5.6 1.4-8.3 4.4-8.3 9 0 3.7 2.5 7 6.2 8.3 1 .3 5.9-.5 11-1.9 24.3-6.5 45.7-9.4 69.3-9.4 24.7 0 44.3 2.7 69.7 9.5 9.2 2.4 9.9 2.5 12.8 1 5.5-2.9 6.4-10.9 1.5-14.1-5.1-3.3-30.6-9.3-50.1-11.8-12.4-1.5-36.8-2.6-46.4-2zM113.5 278.5c-24.3 3.2-49.5 9.4-53.2 13.1-3.1 3.1-3 7.8.2 10.9 3 3.1 5.7 3.1 17 0 22-6 43.1-8.8 67-8.8 25 0 44.7 2.6 67.2 8.8 4.8 1.4 10.2 2.5 11.9 2.5 6.6 0 10.1-9.2 5.2-13.7-3.9-3.6-30.7-10-53.3-12.8-14.7-1.8-47.9-1.8-62 0zM354 309.9c-5.2.3-10.5 1.2-11.7 1.9-2.3 1.3-4.3 6.5-3.5 9.4.6 2.4 4 5.8 6 5.8 49.3.3 59.1 1.2 86.1 8.1 15.4 3.9 18 4 21.3 1.2 4.2-3.7 2.6-11.9-2.9-14.2-5.6-2.2-26.1-7.1-38.3-9.1-11.6-1.8-39.2-4.2-45-3.8-1.4.1-6.8.4-12 .7zM122.8 310.6c-6.2 1.1-8.8 9.5-4.4 13.9 2.5 2.5 2.5 2.5 23.3 2.4 28-.1 44.2 1.9 68 8.1 6.2 1.7 12.5 3 14.1 3 6.6 0 9.9-9.7 4.7-13.8-3.4-2.7-21.8-7.6-40-10.8-12.7-2.2-18.7-2.6-39-2.9-13.2-.2-25.2-.1-26.7.1zM79.2 318c-16.7 4.3-18.1 4.8-19.7 8-2.1 4.2-1.9 6.7 1.1 9.7 3.1 3.1 6.1 2.9 23.4-1.6 12.6-3.3 15-5 15-10.6 0-2.5-.8-4-3.1-5.9-1.7-1.4-3.6-2.6-4.2-2.6-.7.1-6.3 1.4-12.5 3zM307.5 316.2c-13.3 3.2-22.3 6.2-24.2 8.1-4.6 4.2-2.2 12.7 3.9 14.2 3.4.9 30.6-6.9 33.1-9.4 3.2-3.1 2.8-8.7-.7-11.7-2.9-2.5-5.6-2.8-12.1-1.2z"/></svg>